HIERARCHY
ROOT Hips
{
    OFFSET 0.000000 0.000000 0.000000
    CHANNELS 6 Xposition Yposition Zposition Zrotation Xrotation Yrotation
    JOINT Spine
    {
        OFFSET -0.000000 8.339920 0.000000
        CHANNELS 3 Zrotation Xrotation Yrotation
        JOINT Spine1
        {
            OFFSET -0.000000 25.214485 0.000000
            CHANNELS 3 Zrotation Xrotation Yrotation
            JOINT Neck
            {
                OFFSET -0.000000 25.110935 2.282812
                CHANNELS 3 Zrotation Xrotation Yrotation
                JOINT Head
                {
                    OFFSET -0.000000 14.238888 -2.034127
                    CHANNELS 3 Zrotation Xrotation Yrotation
                    End Site
                    {
                        OFFSET -0.000000 25.426584 0.000000
                    }
                }
            }
            JOINT LeftShoulder
            {
                OFFSET 4.025024 23.158985 -0.185822
                CHANNELS 3 Zrotation Xrotation Yrotation
                JOINT LeftArm
                {
                    OFFSET 11.674057 0.000000 0.000000
                    CHANNELS 3 Zrotation Xrotation Yrotation
                    JOINT LeftForeArm
                    {
                        OFFSET 31.688633 0.000000 0.000000
                        CHANNELS 3 Zrotation Xrotation Yrotation
                        JOINT LeftHand
                        {
                            OFFSET 29.704493 0.000000 0.000000
                            CHANNELS 3 Zrotation Xrotation Yrotation
                            End Site
                            {
                                OFFSET 15.255952 0.000000 0.000000
                            }
                        }
                    }
                }
            }
            JOINT RightShoulder
            {
                OFFSET -4.099539 23.158985 -0.185822
                CHANNELS 3 Zrotation Xrotation Yrotation
                JOINT RightArm
                {
                    OFFSET -11.674057 0.000000 0.000000
                    CHANNELS 3 Zrotation Xrotation Yrotation
                    JOINT RightForeArm
                    {
                        OFFSET -31.688633 0.000000 0.000000
                        CHANNELS 3 Zrotation Xrotation Yrotation
                        JOINT RightHand
                        {
                            OFFSET -29.704493 0.000000 0.000000
                            CHANNELS 3 Zrotation Xrotation Yrotation
                            End Site
                            {
                                OFFSET -15.255952 0.000000 0.000000
                            }
                        }
                    }
                }
            }
        }
    }
    JOINT LeftUpLeg
    {
        OFFSET 10.170634 0.000000 0.000000
        CHANNELS 3 Zrotation Xrotation Yrotation
        JOINT LeftLeg
        {
            OFFSET -0.000000 -41.352962 0.000000
            CHANNELS 3 Zrotation Xrotation Yrotation
            JOINT LeftFoot
            {
                OFFSET -0.000000 -47.535004 0.000000
                CHANNELS 3 Zrotation Xrotation Yrotation
                JOINT LeftToeBase
                {
                    OFFSET -0.000000 -6.610912 15.255952
                    CHANNELS 3 Zrotation Xrotation Yrotation
                    End Site
                    {
                        OFFSET -0.000000 0.000000 4.068254
                    }
                }
            }
        }
    }
    JOINT RightUpLeg
    {
        OFFSET -10.170634 0.000000 0.000000
        CHANNELS 3 Zrotation Xrotation Yrotation
        JOINT RightLeg
        {
            OFFSET -0.000000 -41.352962 0.000000
            CHANNELS 3 Zrotation Xrotation Yrotation
            JOINT RightFoot
            {
                OFFSET -0.000000 -47.535004 0.000000
                CHANNELS 3 Zrotation Xrotation Yrotation
                JOINT RightToeBase
                {
                    OFFSET -0.000000 -6.610912 15.255952
                    CHANNELS 3 Zrotation Xrotation Yrotation
                    End Site
                    {
                        OFFSET -0.000000 0.000000 4.068254
                    }
                }
            }
        }
    }
}
MOTION
Frames:    14
Frame Time:    0.008333
15.962606    94.093636    44.711327    -1.043036    0.015752    89.859863    -1.044094    -7.867774    -6.170424    0.748329    10.370763    -6.166537    -7.039995    24.098730    -7.930495    10.922425    -1.442153    -7.103666    5.802109    3.513217    -9.175611    -58.036015    50.094051    -15.577547    14.231328    -21.214415    -31.568970    -13.120003    -17.677759    2.557392    -13.112421    2.351890    -1.466703    82.061302    63.493927    -2.774421    0.923018    -8.130705    17.245541    2.245291    -8.238502    1.592405    -1.672654    17.797869    3.273057    -2.077646    -5.025653    1.316172    -3.961486    -1.072005    -0.275806    0.000000    0.000000    0.000000    2.190071    -22.874289    6.718669    -1.341396    14.987217    -7.878778    5.948054    -6.784086    -6.526036    0.000000    0.000000    0.000000    
17.259754    93.872711    44.732933    -1.177884    0.190723    90.390945    -1.410280    -8.207829    -6.461465    1.006449    10.846486    -6.455820    -6.938271    23.916498    -7.985823    10.899517    -1.647669    -7.125452    5.874412    3.350515    -9.219493    -57.527672    49.513981    -16.046160    14.739010    -21.731922    -32.565342    -13.285774    -17.890490    2.121857    -13.228500    2.129540    -1.538700    82.984276    63.305428    -3.653193    0.915797    -8.149749    16.884150    1.771491    -8.263727    1.351703    -1.703349    18.388367    3.209280    -2.098360    -4.898864    0.897422    -4.151330    -1.179553    -0.282682    0.000000    0.000000    0.000000    2.022892    -22.379484    7.086084    -2.022185    10.982944    -7.615025    6.578582    -6.733130    -7.192877    0.000000    0.000000    0.000000    
18.573608    93.625450    44.707989    -1.223319    0.432421    90.765770    -1.859831    -8.599775    -6.626955    1.344722    11.638839    -6.624140    -6.623104    23.440895    -8.212887    10.528505    -1.732639    -7.358336    5.948978    3.052982    -9.214835    -56.964848    48.949810    -16.753222    15.258663    -22.228294    -33.464970    -13.661023    -18.098740    1.809623    -13.363672    2.083968    -1.882443    82.846420    63.174309    -3.505131    1.131753    -8.220445    16.591923    1.511373    -8.367850    1.228057    -1.903764    19.118900    3.214596    -2.032758    -4.905859    1.170285    -4.219528    -1.134085    -0.864058    0.000000    0.000000    0.000000    1.637050    -21.905537    8.166020    -2.327740    7.357441    -7.787053    6.955225    -6.721338    -8.002780    0.000000    0.000000    0.000000    
19.887383    93.362831    44.703178    -1.237977    0.654060    91.150208    -2.228626    -8.786073    -6.793861    1.571252    12.065515    -6.788672    -6.477193    23.304665    -8.364910    10.549003    -1.929507    -7.477180    6.111074    2.900135    -9.262264    -56.574139    48.787155    -17.259632    15.875116    -22.970566    -34.393063    -13.097665    -18.547176    1.881086    -13.383418    2.187379    -2.294672    82.578659    63.334778    -3.279351    1.314660    -8.187620    16.253046    1.295308    -8.360369    1.176106    -1.986789    19.865396    3.406061    -2.075508    -4.799957    0.547143    -4.176449    -1.167252    -0.900917    0.000000    0.000000    0.000000    1.277686    -21.241846    8.971334    -2.756033    3.651475    -8.217906    7.082990    -6.468882    -8.287190    0.000000    0.000000    0.000000    
21.228798    93.086502    44.676960    -1.270692    0.919243    91.459473    -2.480235    -8.976543    -6.958011    1.561334    12.418901    -6.933148    -6.288685    22.944113    -8.438280    10.322491    -1.784193    -7.567348    6.297666    2.760620    -9.357215    -56.493404    47.959274    -17.498703    16.270136    -23.299685    -35.272549    -13.013885    -18.602579    1.576113    -13.220566    2.399049    -2.264419    82.091820    62.948162    -2.915640    1.586987    -8.048855    15.879119    1.076750    -8.257481    1.139732    -2.170650    20.549820    3.624887    -2.050492    -4.610583    0.177274    -4.360382    -1.206077    -1.117124    0.000000    0.000000    0.000000    0.781145    -20.715900    10.452959    -3.045348    0.338452    -8.847550    7.406032    -6.339173    -8.898003    0.000000    0.000000    0.000000    
22.606770    92.804840    44.695580    -1.317098    1.185829    91.837799    -2.941514    -8.991026    -7.044765    1.863484    12.334912    -7.014796    -6.083559    23.284264    -8.610152    10.331579    -2.136088    -7.721380    6.232987    2.910505    -9.667516    -56.081295    47.509567    -17.941904    16.870922    -23.823681    -35.885719    -13.273009    -18.818436    1.134535    -13.054091    2.677282    -2.439393    82.031593    62.614555    -3.124187    1.805783    -8.005877    15.483929    0.591898    -8.244346    0.919056    -2.245276    21.172243    3.929799    -2.083179    -4.316207    -0.233313    -4.574529    -1.193057    -1.561110    0.000000    0.000000    0.000000    0.233748    -20.224604    12.076205    -3.251883    -2.446158    -9.767251    7.978416    -6.640356    -9.774167    0.000000    0.000000    0.000000    
23.951927    92.530952    44.715225    -1.350893    1.394347    92.151711    -3.127603    -8.993251    -7.265985    1.892323    12.285891    -7.223596    -6.059685    23.612579    -8.485823    10.182709    -2.850577    -7.571146    6.259682    2.906532    -9.627230    -55.956074    47.339809    -17.979761    17.548893    -24.380089    -36.586113    -12.884872    -19.052233    1.015983    -13.073826    2.513534    -2.517360    82.282173    62.412960    -3.410951    2.246950    -7.757113    14.937299    0.483864    -8.045316    0.885479    -2.281664    21.700958    4.112108    -2.038223    -3.810453    -1.108299    -4.808415    -1.344932    -1.416740    0.000000    0.000000    0.000000    -0.229320    -19.958517    13.068861    -3.378838    -4.573463    -10.622848    8.665930    -6.849302    -10.030902    0.000000    0.000000    0.000000    
25.322788    92.242996    44.736134    -1.385670    1.628162    92.457062    -3.399196    -9.230452    -7.566762    1.972793    12.649756    -7.510925    -6.377933    23.033003    -8.340294    10.325008    -2.175486    -7.441329    6.247883    2.788222    -9.385135    -55.911118    46.701946    -18.068043    17.860456    -24.594196    -37.336624    -12.741071    -19.037693    0.907447    -13.138057    2.286437    -2.280780    82.901154    62.367153    -3.949657    2.197101    -7.858916    14.407857    0.330378    -8.131959    0.739875    -2.273844    22.211685    4.613429    -2.089817    -3.310033    -1.723223    -5.045501    -1.306026    -1.983420    0.000000    0.000000    0.000000    -0.606989    -19.993074    13.196273    -3.357902    -5.598100    -11.021659    9.444387    -7.478590    -9.802774    0.000000    0.000000    0.000000    
26.702225    91.970131    44.795940    -1.445999    1.757919    92.743279    -3.870569    -9.383651    -7.603627    2.540946    12.891772    -7.572911    -6.392614    22.638166    -8.558517    10.367944    -1.841702    -7.668063    6.298148    2.608480    -9.679416    -55.926430    46.698708    -18.291697    18.647903    -25.246178    -37.833366    -12.441853    -19.377325    0.982269    -13.439763    2.260539    -2.519745    83.222839    61.992031    -4.221067    2.580443    -7.814910    14.039119    -0.239578    -8.130568    0.404651    -2.130088    22.644547    4.650864    -2.114430    -2.691982    -2.129253    -5.287309    -1.309890    -2.234988    0.000000    0.000000    0.000000    -0.766163    -20.325962    12.925647    -3.202186    -5.733818    -11.319900    10.105630    -7.847962    -9.184010    0.000000    0.000000    0.000000    
28.069592    91.709221    44.861313    -1.479438    1.775965    92.941772    -3.923116    -9.315276    -7.640917    2.628161    12.719652    -7.614105    -6.171057    22.857586    -8.706635    10.168042    -2.279173    -7.815853    6.399907    2.602498    -9.852335    -56.285774    45.985703    -18.233599    19.111706    -25.323717    -38.303261    -12.468558    -19.198261    0.771688    -13.207425    2.296696    -2.762056    83.186707    61.621315    -4.424697    2.738832    -7.537159    13.533357    0.028922    -7.859275    0.317277    -1.888080    23.005947    4.842881    -2.124727    -1.892646    -2.747473    -5.562488    -1.350855    -2.381815    0.000000    0.000000    0.000000    -0.693169    -20.796501    12.518188    -2.994977    -5.062395    -11.645649    10.517276    -7.867761    -8.222355    0.000000    0.000000    0.000000    
29.458500    91.457878    44.945454    -1.484263    1.691548    92.969162    -3.978705    -9.305779    -7.560007    2.879762    12.646320    -7.555185    -6.012527    22.875549    -8.922585    10.078500    -2.227355    -8.051268    6.392423    2.566546    -10.013530    -56.416073    45.669281    -18.358490    19.632444    -25.497002    -38.644341    -12.044878    -19.125919    0.655101    -12.974210    2.596380    -2.841031    82.659889    61.344318    -4.183290    2.914603    -7.375806    13.106653    0.193779    -7.707406    0.291474    -1.600837    23.366016    5.097741    -2.062138    -1.013989    -3.285605    -6.014603    -1.296198    -2.600193    0.000000    0.000000    0.000000    -0.352678    -21.327219    12.127298    -2.802372    -3.764341    -11.627430    10.717616    -7.788688    -7.279809    0.000000    0.000000    0.000000    
30.911520    91.236588    45.084255    -1.386739    1.379482    93.020950    -3.801326    -9.471768    -7.714200    3.213160    13.097671    -7.768082    -6.340006    22.379898    -8.803420    9.991942    -2.104603    -7.941327    6.211812    2.391862    -9.538260    -56.259586    45.691185    -18.582758    20.125391    -25.810104    -38.978565    -11.514521    -19.215466    0.618511    -13.411557    2.280538    -2.654122    83.010666    60.711773    -4.235550    3.238781    -6.903150    12.551377    0.351792    -7.256010    0.253865    -1.036670    23.889664    4.652203    -1.998754    -0.331648    -2.801414    -6.711491    -0.834364    -3.187520    0.000000    0.000000    0.000000    0.360706    -21.751947    11.884275    -2.791078    -1.947970    -10.961034    10.190629    -7.735136    -6.964227    0.000000    0.000000    0.000000    
32.322212    91.023384    45.176506    -1.389002    1.172493    92.828773    -3.362546    -9.425469    -7.712249    2.990178    12.854611    -7.771842    -6.427109    22.447212    -8.598711    9.821989    -2.156433    -7.759848    6.108950    2.519349    -9.268754    -56.377693    45.439369    -18.430201    20.592213    -25.861273    -39.238647    -11.326136    -19.048697    0.540873    -13.271863    2.058487    -2.531144    83.495560    60.976963    -4.758129    3.329755    -7.031340    11.965881    0.144450    -7.377945    -0.169657    -0.767495    24.129951    5.036666    -1.847036    0.671380    -3.128739    -7.167541    -0.419874    -3.499912    0.000000    0.000000    0.000000    1.006795    -22.367304    11.796150    -2.637189    0.200750    -10.017342    9.229118    -7.706437    -7.100190    0.000000    0.000000    0.000000    
33.837051    90.844635    45.330299    -1.201038    0.778891    92.802704    -3.050980    -9.327703    -7.668818    3.166367    12.775351    -7.774389    -6.221593    22.457899    -8.580406    9.349644    -2.196223    -7.801735    6.013627    2.609835    -9.248233    -56.585609    45.219372    -18.385462    20.696712    -25.988058    -39.582420    -10.013128    -19.106430    0.953752    -13.005561    2.334377    -2.508548    82.935295    60.703823    -4.487486    3.524816    -6.972370    11.606122    0.424190    -7.329310    -0.358800    -0.102916    24.532053    5.393337    -1.821390    1.826604    -3.999418    -7.613085    0.105641    -3.360808    0.000000    0.000000    0.000000    1.858019    -22.504284    11.778179    -2.431628    2.293285    -9.054810    8.461707    -7.712408    -8.027707    0.000000    0.000000    0.000000    
